<svg width="59" height="12" viewBox="0 0 59 12" fill="none" xmlns="http://www.w3.org/2000/svg">
<path d="M17.7361 3.63C17.5628 3.63 17.4161 3.57 17.2961 3.45C17.1761 3.33 17.1161 3.18333 17.1161 3.01C17.1161 2.83667 17.1761 2.69 17.2961 2.57C17.4161 2.45 17.5628 2.39 17.7361 2.39C17.9028 2.39 18.0428 2.45 18.1561 2.57C18.2761 2.69 18.3361 2.83667 18.3361 3.01C18.3361 3.18333 18.2761 3.33 18.1561 3.45C18.0428 3.57 17.9028 3.63 17.7361 3.63ZM18.1761 4.52V10H17.2661V4.52H18.1761ZM22.397 4.42C23.0637 4.42 23.6037 4.62333 24.017 5.03C24.4304 5.43 24.637 6.01 24.637 6.77V10H23.737V6.9C23.737 6.35333 23.6004 5.93667 23.327 5.65C23.0537 5.35667 22.6804 5.21 22.207 5.21C21.727 5.21 21.3437 5.36 21.057 5.66C20.777 5.96 20.637 6.39667 20.637 6.97V10H19.727V4.52H20.637V5.3C20.817 5.02 21.0604 4.80333 21.367 4.65C21.6804 4.49667 22.0237 4.42 22.397 4.42ZM30.7295 10.09C30.3095 10.09 29.9329 10.02 29.5995 9.88C29.2662 9.73333 29.0029 9.53333 28.8095 9.28C28.6162 9.02 28.5095 8.72333 28.4895 8.39H29.4295C29.4562 8.66333 29.5829 8.88667 29.8095 9.06C30.0429 9.23333 30.3462 9.32 30.7195 9.32C31.0662 9.32 31.3395 9.24333 31.5395 9.09C31.7395 8.93667 31.8395 8.74333 31.8395 8.51C31.8395 8.27 31.7329 8.09333 31.5195 7.98C31.3062 7.86 30.9762 7.74333 30.5295 7.63C30.1229 7.52333 29.7895 7.41667 29.5295 7.31C29.2762 7.19667 29.0562 7.03333 28.8695 6.82C28.6895 6.6 28.5995 6.31333 28.5995 5.96C28.5995 5.68 28.6829 5.42333 28.8495 5.19C29.0162 4.95667 29.2529 4.77333 29.5595 4.64C29.8662 4.5 30.2162 4.43 30.6095 4.43C31.2162 4.43 31.7062 4.58333 32.0795 4.89C32.4529 5.19667 32.6529 5.61667 32.6795 6.15H31.7695C31.7495 5.86333 31.6329 5.63333 31.4195 5.46C31.2129 5.28667 30.9329 5.2 30.5795 5.2C30.2529 5.2 29.9929 5.27 29.7995 5.41C29.6062 5.55 29.5095 5.73333 29.5095 5.96C29.5095 6.14 29.5662 6.29 29.6795 6.41C29.7995 6.52333 29.9462 6.61667 30.1195 6.69C30.2995 6.75667 30.5462 6.83333 30.8595 6.92C31.2529 7.02667 31.5729 7.13333 31.8195 7.24C32.0662 7.34 32.2762 7.49333 32.4495 7.7C32.6295 7.90667 32.7229 8.17667 32.7295 8.51C32.7295 8.81 32.6462 9.08 32.4795 9.32C32.3129 9.56 32.0762 9.75 31.7695 9.89C31.4695 10.0233 31.1229 10.09 30.7295 10.09ZM35.1241 5.27V8.5C35.1241 8.76667 35.1808 8.95667 35.2941 9.07C35.4075 9.17667 35.6041 9.23 35.8841 9.23H36.5541V10H35.7341C35.2275 10 34.8475 9.88333 34.5941 9.65C34.3408 9.41667 34.2141 9.03333 34.2141 8.5V5.27H33.5041V4.52H34.2141V3.14H35.1241V4.52H36.5541V5.27H35.1241ZM40.0467 10.09C39.5334 10.09 39.0667 9.97333 38.6467 9.74C38.2334 9.50667 37.9067 9.17667 37.6667 8.75C37.4334 8.31667 37.3167 7.81667 37.3167 7.25C37.3167 6.69 37.4367 6.19667 37.6767 5.77C37.9234 5.33667 38.2567 5.00667 38.6767 4.78C39.0967 4.54667 39.5667 4.43 40.0867 4.43C40.6067 4.43 41.0767 4.54667 41.4967 4.78C41.9167 5.00667 42.2467 5.33333 42.4867 5.76C42.7334 6.18667 42.8567 6.68333 42.8567 7.25C42.8567 7.81667 42.7301 8.31667 42.4767 8.75C42.2301 9.17667 41.8934 9.50667 41.4667 9.74C41.0401 9.97333 40.5667 10.09 40.0467 10.09ZM40.0467 9.29C40.3734 9.29 40.6801 9.21333 40.9667 9.06C41.2534 8.90667 41.4834 8.67667 41.6567 8.37C41.8367 8.06333 41.9267 7.69 41.9267 7.25C41.9267 6.81 41.8401 6.43667 41.6667 6.13C41.4934 5.82333 41.2667 5.59667 40.9867 5.45C40.7067 5.29667 40.4034 5.22 40.0767 5.22C39.7434 5.22 39.4367 5.29667 39.1567 5.45C38.8834 5.59667 38.6634 5.82333 38.4967 6.13C38.3301 6.43667 38.2467 6.81 38.2467 7.25C38.2467 7.69667 38.3267 8.07333 38.4867 8.38C38.6534 8.68667 38.8734 8.91667 39.1467 9.07C39.4201 9.21667 39.7201 9.29 40.0467 9.29ZM43.7132 7.25C43.7132 6.68333 43.8265 6.19 44.0532 5.77C44.2799 5.34333 44.5932 5.01333 44.9932 4.78C45.3999 4.54667 45.8632 4.43 46.3832 4.43C47.0565 4.43 47.6099 4.59333 48.0432 4.92C48.4832 5.24667 48.7732 5.7 48.9132 6.28H47.9332C47.8399 5.94667 47.6565 5.68333 47.3832 5.49C47.1165 5.29667 46.7832 5.2 46.3832 5.2C45.8632 5.2 45.4432 5.38 45.1232 5.74C44.8032 6.09333 44.6432 6.59667 44.6432 7.25C44.6432 7.91 44.8032 8.42 45.1232 8.78C45.4432 9.14 45.8632 9.32 46.3832 9.32C46.7832 9.32 47.1165 9.22667 47.3832 9.04C47.6499 8.85333 47.8332 8.58667 47.9332 8.24H48.9132C48.7665 8.8 48.4732 9.25 48.0332 9.59C47.5932 9.92333 47.0432 10.09 46.3832 10.09C45.8632 10.09 45.3999 9.97333 44.9932 9.74C44.5932 9.50667 44.2799 9.17667 44.0532 8.75C43.8265 8.32333 43.7132 7.82333 43.7132 7.25ZM53.1874 10L51.0374 7.58V10H50.1274V2.6H51.0374V6.95L53.1474 4.52H54.4174L51.8374 7.25L54.4274 10H53.1874Z" fill="#78A962"/>
<circle cx="5.5" cy="6" r="5" fill="#78A962"/>
<path d="M7.5 5L4.98404 8L3.5 6.27853" stroke="white" stroke-linecap="round"/>
</svg>
